<svg
    xmlns="http://www.w3.org/2000/svg"
    width="960"
    height="760"
    viewBox="0 0 960 760"
    fill="none"
>
    <defs>
        <linearGradient id="panelGradient" x1="0" y1="0" x2="1" y2="1">
            <stop offset="0%" stop-color="#a5b4fc" stop-opacity="0.34" />
            <stop offset="100%" stop-color="#60a5fa" stop-opacity="0.08" />
        </linearGradient>
        <linearGradient id="bottleGradient" x1="0" y1="0" x2="0" y2="1">
            <stop offset="0%" stop-color="#c7d2fe" stop-opacity="0.95" />
            <stop offset="100%" stop-color="#93c5fd" stop-opacity="0.5" />
        </linearGradient>
        <linearGradient id="waterGradient" x1="0" y1="0" x2="1" y2="1">
            <stop offset="0%" stop-color="#38bdf8" stop-opacity="0.85" />
            <stop offset="100%" stop-color="#2563eb" stop-opacity="0.9" />
        </linearGradient>
        <filter id="softGlow" x="-20%" y="-20%" width="140%" height="140%">
            <feGaussianBlur stdDeviation="14" />
        </filter>
    </defs>

    <rect x="558" y="60" width="318" height="208" rx="28" fill="url(#panelGradient)" />
    <rect x="584" y="92" width="170" height="18" rx="9" fill="#cbd5e1" fill-opacity="0.34" />
    <rect x="584" y="123" width="202" height="15" rx="8" fill="#cbd5e1" fill-opacity="0.24" />
    <rect x="584" y="151" width="142" height="15" rx="8" fill="#cbd5e1" fill-opacity="0.24" />
    <circle cx="828" cy="122" r="20" fill="#cbd5e1" fill-opacity="0.3" />

    <rect x="610" y="304" width="286" height="166" rx="24" fill="url(#panelGradient)" />
    <rect x="640" y="336" width="184" height="14" rx="7" fill="#cbd5e1" fill-opacity="0.3" />
    <rect x="640" y="362" width="150" height="14" rx="7" fill="#cbd5e1" fill-opacity="0.25" />
    <rect x="640" y="388" width="112" height="14" rx="7" fill="#cbd5e1" fill-opacity="0.25" />
    <rect x="640" y="422" width="102" height="30" rx="15" fill="#0ea5e9" fill-opacity="0.35" />

    <rect x="540" y="506" width="344" height="184" rx="28" fill="url(#panelGradient)" />
    <rect x="574" y="538" width="218" height="14" rx="7" fill="#cbd5e1" fill-opacity="0.3" />
    <rect x="574" y="564" width="170" height="14" rx="7" fill="#cbd5e1" fill-opacity="0.25" />
    <rect x="574" y="590" width="128" height="14" rx="7" fill="#cbd5e1" fill-opacity="0.25" />

    <rect x="204" y="88" width="228" height="550" rx="74" fill="url(#bottleGradient)" />
    <rect x="244" y="44" width="148" height="72" rx="26" fill="url(#bottleGradient)" />
    <rect x="266" y="28" width="104" height="28" rx="14" fill="#bfdbfe" fill-opacity="0.84" />
    <ellipse cx="318" cy="222" rx="92" ry="20" fill="#ffffff" fill-opacity="0.28" />
    <path
        d="M234 260C256 242 286 242 318 254C350 266 380 266 402 248V430C380 448 350 448 318 436C286 424 256 424 234 442V260Z"
        fill="url(#waterGradient)"
    />
    <path
        d="M240 318C270 300 292 300 318 312C344 324 366 324 396 306"
        stroke="#bfdbfe"
        stroke-opacity="0.6"
        stroke-width="8"
        stroke-linecap="round"
    />
    <rect x="252" y="470" width="132" height="60" rx="16" fill="#dbeafe" fill-opacity="0.46" />
    <rect x="272" y="492" width="92" height="10" rx="5" fill="#dbeafe" fill-opacity="0.5" />
    <circle cx="318" cy="579" r="16" fill="#dbeafe" fill-opacity="0.42" />

    <path
        d="M122 250C122 228 138 211 160 211C182 211 198 228 198 250C198 283 160 323 160 323C160 323 122 283 122 250Z"
        fill="#38bdf8"
        fill-opacity="0.86"
    />
    <circle cx="160" cy="250" r="15" fill="#bae6fd" fill-opacity="0.64" />

    <path
        d="M102 480C102 459 117 444 138 444C159 444 174 459 174 480C174 511 138 547 138 547C138 547 102 511 102 480Z"
        fill="#38bdf8"
        fill-opacity="0.52"
    />

    <rect x="104" y="594" width="246" height="84" rx="18" fill="#94a3b8" fill-opacity="0.45" />
    <rect x="252" y="618" width="74" height="60" rx="12" fill="#94a3b8" fill-opacity="0.45" />
    <rect x="116" y="610" width="116" height="20" rx="8" fill="#dbeafe" fill-opacity="0.36" />
    <circle cx="164" cy="688" r="20" fill="#dbeafe" fill-opacity="0.44" />
    <circle cx="284" cy="688" r="20" fill="#dbeafe" fill-opacity="0.44" />
    <circle cx="164" cy="688" r="8" fill="#0f172a" fill-opacity="0.4" />
    <circle cx="284" cy="688" r="8" fill="#0f172a" fill-opacity="0.4" />

    <circle cx="444" cy="204" r="36" fill="#38bdf8" fill-opacity="0.28" filter="url(#softGlow)" />
    <circle cx="478" cy="534" r="32" fill="#38bdf8" fill-opacity="0.24" filter="url(#softGlow)" />
    <circle cx="82" cy="388" r="28" fill="#38bdf8" fill-opacity="0.2" filter="url(#softGlow)" />
</svg>
